<svg width="16" height="20" viewBox="0 0 16 20" fill="none" xmlns="http://www.w3.org/2000/svg">
<path fill-rule="evenodd" clip-rule="evenodd" d="M0.917436 11.4892V11.3067C0.944207 10.7668 1.11725 10.2437 1.41871 9.7913C1.9205 9.24784 2.264 8.58188 2.41318 7.86327C2.41318 7.30788 2.41318 6.74455 2.46169 6.18915C2.71232 3.51531 5.35615 1.66663 7.96763 1.66663H8.03231C10.6438 1.66663 13.2876 3.51531 13.5463 6.18915C13.5948 6.74455 13.5463 7.30788 13.5868 7.86327C13.7379 8.58355 14.0811 9.25158 14.5812 9.79923C14.8849 10.2476 15.0583 10.7688 15.0825 11.3067V11.4813C15.1005 12.2067 14.8507 12.914 14.3791 13.4728C13.7559 14.1262 12.9102 14.5327 12.0021 14.6153C9.33924 14.901 6.65261 14.901 3.98977 14.6153C3.0827 14.5291 2.23821 14.1232 1.61275 13.4728C1.14841 12.9135 0.901949 12.2104 0.917436 11.4892Z" stroke="#070D2C" stroke-width="1.5" stroke-linecap="round" stroke-linejoin="round"/>
<path d="M5.96265 17.3765C6.37871 17.8987 6.9897 18.2367 7.66039 18.3156C8.33108 18.3945 9.00617 18.2079 9.53625 17.797C9.69929 17.6755 9.84598 17.5342 9.97285 17.3765" stroke="#070D2C" stroke-width="1.5" stroke-linecap="round" stroke-linejoin="round"/>
</svg>
