<svg width="15" height="15" viewBox="0 0 15 15" fill="none" xmlns="http://www.w3.org/2000/svg">
<path fill-rule="evenodd" clip-rule="evenodd" d="M0 7.51127C0 3.56034 3.1575 0 7.515 0C11.775 0 15 3.49274 15 7.48873C15 12.1232 11.22 15 7.5 15C6.27 15 4.905 14.6695 3.81 14.0235C3.4275 13.7907 3.105 13.6179 2.6925 13.7531L1.1775 14.2038C0.795 14.324 0.45 14.0235 0.5625 13.6179L1.065 11.9354C1.1475 11.7026 1.1325 11.4547 1.0125 11.2594C0.3675 10.0726 0 8.77316 0 7.51127ZM4.02738 8.48026C3.50238 8.48026 3.06738 8.0446 3.06738 7.51882C3.06738 6.98552 3.49488 6.55737 4.02738 6.55737C4.55988 6.55737 4.98738 6.98552 4.98738 7.51882C4.98738 8.0446 4.55988 8.47275 4.02738 8.48026ZM6.5249 7.5114C6.5249 8.0447 6.9524 8.47284 7.4849 8.48035C8.0174 8.48035 8.4449 8.0447 8.4449 7.51891C8.4449 6.98561 8.0174 6.55747 7.4849 6.55747C6.9599 6.54996 6.5249 6.98561 6.5249 7.5114ZM9.9824 7.51888C9.9824 8.04467 10.4099 8.48032 10.9424 8.48032C11.4749 8.48032 11.9024 8.04467 11.9024 7.51888C11.9024 6.98558 11.4749 6.55744 10.9424 6.55744C10.4099 6.55744 9.9824 6.98558 9.9824 7.51888Z" fill="#1676F3"/>
</svg>
