<svg width="17" height="17" viewBox="0 0 17 17" fill="none" xmlns="http://www.w3.org/2000/svg">
<path fill-rule="evenodd" clip-rule="evenodd" d="M5.27145 9.54318C4.78788 9.54318 4.39502 9.15032 4.39502 8.66675C4.39502 8.18461 4.78788 7.79175 5.27145 7.79175C5.75502 7.79175 6.14788 8.18461 6.14788 8.66675C6.14788 9.15032 5.75502 9.54318 5.27145 9.54318ZM8.67859 9.54318C8.19502 9.54318 7.80216 9.15032 7.80216 8.66675C7.80216 8.18461 8.19502 7.79175 8.67859 7.79175C9.16216 7.79175 9.55502 8.18461 9.55502 8.66675C9.55502 9.15032 9.16216 9.54318 8.67859 9.54318ZM11.2094 8.66675C11.2094 9.15032 11.6022 9.54318 12.0858 9.54318C12.5694 9.54318 12.9622 9.15032 12.9622 8.66675C12.9622 8.18461 12.5694 7.79175 12.0858 7.79175C11.6022 7.79175 11.2094 8.18461 11.2094 8.66675Z" fill="#858585"/>
<path fill-rule="evenodd" clip-rule="evenodd" d="M8.515 1C4.1575 1 1 4.55959 1 8.51127C1 9.77316 1.3675 11.0719 2.0125 12.2586C2.1325 12.4547 2.1475 12.7018 2.065 12.9354L1.5625 14.6179C1.45 15.0235 1.795 15.3232 2.1775 15.2031L3.6925 14.7531C4.105 14.6179 4.4275 14.7899 4.81 15.0235C5.905 15.6688 7.27 16 8.5 16C12.22 16 16 13.1232 16 8.48873C16 4.49199 12.775 1 8.515 1Z" stroke="#858585" stroke-width="1.5" stroke-linecap="round" stroke-linejoin="round"/>
</svg>
