<svg width="17" height="16" viewBox="0 0 17 16" fill="none" xmlns="http://www.w3.org/2000/svg">
<path fill-rule="evenodd" clip-rule="evenodd" d="M15.6255 15.783H9.5813C9.2363 15.783 8.9563 15.503 8.9563 15.158C8.9563 14.813 9.2363 14.533 9.5813 14.533H15.6255C15.9705 14.533 16.2505 14.813 16.2505 15.158C16.2505 15.503 15.9705 15.783 15.6255 15.783" fill="#858585"/>
<mask id="mask0_919_17021" style="mask-type:luminance" maskUnits="userSpaceOnUse" x="0" y="0" width="15" height="16">
<path fill-rule="evenodd" clip-rule="evenodd" d="M0 0H14.3172V15.783H0V0Z" fill="white"/>
</mask>
<g mask="url(#mask0_919_17021)">
<path fill-rule="evenodd" clip-rule="evenodd" d="M9.25854 1.68054L1.41271 11.493C1.27021 11.6714 1.21771 11.9014 1.27021 12.1222L1.83771 14.5264L4.37021 14.4947C4.61104 14.4922 4.83354 14.3847 4.98104 14.2014C7.66187 10.8472 12.7727 4.45221 12.9177 4.26471C13.0544 4.04304 13.1077 3.72971 13.036 3.42804C12.9627 3.11887 12.7702 2.85637 12.4927 2.68887C12.4335 2.64804 11.0294 1.55804 10.986 1.52387C10.4577 1.10054 9.68687 1.17387 9.25854 1.68054V1.68054ZM1.3444 15.783C1.05523 15.783 0.803562 15.5847 0.736062 15.3022L0.0535619 12.4097C-0.0872714 11.8105 0.0527286 11.1922 0.436895 10.7122L8.28689 0.893869C8.29023 0.890536 8.29273 0.886369 8.29606 0.883036C9.1569 -0.146131 10.7136 -0.297798 11.7636 0.544702C11.8052 0.577202 13.1994 1.66054 13.1994 1.66054C13.7061 1.9622 14.1019 2.50137 14.2519 3.1397C14.4011 3.77137 14.2927 4.42304 13.9452 4.97387C13.9194 5.0147 13.8969 5.0497 5.9569 14.983C5.5744 15.4597 5.00106 15.7372 4.38523 15.7447L1.35273 15.783H1.3444Z" fill="#858585"/>
</g>
<path fill-rule="evenodd" clip-rule="evenodd" d="M11.8526 7.2372C11.7193 7.2372 11.5859 7.1947 11.4718 7.10804L6.92844 3.61804C6.65511 3.40804 6.60344 3.01637 6.81344 2.74137C7.02427 2.46804 7.41594 2.4172 7.69011 2.6272L12.2343 6.11637C12.5076 6.32637 12.5593 6.71887 12.3484 6.99304C12.2259 7.15304 12.0401 7.2372 11.8526 7.2372" fill="#858585"/>
</svg>
